<?xml version="1.0" standalone="no"?>
<!DOCTYPE svg PUBLIC "-//W3C//DTD SVG 20010904//EN"
 "http://www.w3.org/TR/2001/REC-SVG-20010904/DTD/svg10.dtd">
<svg version="1.0" xmlns="http://www.w3.org/2000/svg"
 width="256.000000pt" height="256.000000pt" viewBox="0 0 256.000000 256.000000"
 preserveAspectRatio="xMidYMid meet">
<metadata>
Created by potrace 1.11, written by Peter Selinger 2001-2013
</metadata>
<g transform="translate(0.000000,256.000000) scale(0.100000,-0.100000)"
fill="#000000" stroke="none">
<path d="M162 2449 c-9 -4 -26 -17 -37 -29 -19 -21 -20 -40 -21 -1128 0 -965
1 -1111 15 -1141 8 -19 23 -36 33 -39 10 -2 15 -9 11 -15 -4 -6 -1 -7 8 -1 18
11 71 12 86 1 6 -4 14 -3 18 3 3 6 12 7 18 3 16 -10 47 -11 42 -2 -6 9 58 5
75 -6 9 -5 11 -4 6 3 -4 7 -3 12 3 12 5 0 13 -5 16 -10 4 -7 13 -6 26 1 15 7
24 7 34 -1 9 -8 15 -8 20 0 5 7 11 8 19 1 7 -6 17 -6 26 -1 8 5 19 6 25 2 15
-9 36 -11 31 -3 -6 9 106 7 121 -2 7 -4 14 -3 18 3 4 6 12 7 18 3 16 -10 47
-11 42 -2 -6 9 58 5 75 -6 9 -5 11 -4 6 3 -4 7 -3 12 3 12 5 0 13 -5 16 -10 4
-7 13 -6 26 1 15 7 24 7 34 -1 9 -8 15 -8 20 0 5 7 11 8 19 1 7 -6 17 -6 26
-1 8 5 19 6 25 2 15 -9 36 -11 31 -3 -6 9 106 7 121 -2 7 -4 14 -3 18 3 4 6
12 7 18 3 16 -10 47 -11 42 -2 -6 9 58 5 75 -6 9 -5 11 -4 6 3 -4 7 -3 12 3
12 5 0 13 -5 16 -10 4 -7 13 -6 26 1 15 7 24 7 34 -1 9 -8 15 -8 20 0 5 7 11
8 19 1 7 -6 17 -6 26 -1 8 5 19 6 25 2 15 -9 36 -11 31 -3 -6 9 106 7 121 -2
7 -4 14 -3 18 3 4 6 12 7 18 3 16 -10 47 -11 42 -2 -6 9 58 5 75 -6 9 -5 11
-4 6 3 -4 7 -3 12 3 12 5 0 13 -5 16 -10 4 -7 13 -6 26 1 15 7 24 7 34 -1 9
-8 15 -8 20 0 5 7 11 8 19 1 7 -6 17 -6 26 -1 8 5 19 6 25 2 15 -9 36 -11 31
-3 -6 9 106 7 121 -2 7 -4 14 -3 18 3 4 6 12 7 18 3 16 -10 47 -11 42 -2 -6 9
58 5 75 -6 9 -5 11 -4 6 3 -9 15 -1 15 26 1 15 -8 19 -8 14 0 -4 7 0 11 12 11
20 0 61 34 63 53 1 7 2 511 3 1122 l1 1110 -26 29 -26 29 -1112 1 c-612 1
-1120 -2 -1129 -5z"/>
</g>
</svg>
